<mxfile host="app.diagrams.net" modified="2023-06-07T08:02:47.163Z" agent="Mozilla/5.0 (Macintosh; Intel Mac OS X 10_15_7) AppleWebKit/537.36 (KHTML, like Gecko) Chrome/113.0.0.0 Safari/537.36" etag="AE7qO-SowoBiSrvGFANd" version="21.3.7" type="github">
  <diagram name="Trang-1" id="4n4b8Lw41_M_HkU3lxvP">
    <mxGraphModel dx="1834" dy="771" grid="1" gridSize="10" guides="1" tooltips="1" connect="1" arrows="1" fold="1" page="0" pageScale="1" pageWidth="827" pageHeight="1169" math="0" shadow="0">
      <root>
        <mxCell id="0" />
        <mxCell id="1" parent="0" />
        <mxCell id="OFLH9VN8QRDgNdpGOipJ-5" style="edgeStyle=orthogonalEdgeStyle;rounded=0;orthogonalLoop=1;jettySize=auto;html=1;" edge="1" parent="1" source="OFLH9VN8QRDgNdpGOipJ-2" target="OFLH9VN8QRDgNdpGOipJ-4">
          <mxGeometry relative="1" as="geometry" />
        </mxCell>
        <mxCell id="OFLH9VN8QRDgNdpGOipJ-2" value="Start" style="ellipse;whiteSpace=wrap;html=1;aspect=fixed;fillColor=#d5e8d4;strokeColor=#82b366;" vertex="1" parent="1">
          <mxGeometry x="-210" y="240" width="80" height="80" as="geometry" />
        </mxCell>
        <mxCell id="OFLH9VN8QRDgNdpGOipJ-7" style="edgeStyle=orthogonalEdgeStyle;rounded=0;orthogonalLoop=1;jettySize=auto;html=1;" edge="1" parent="1" source="OFLH9VN8QRDgNdpGOipJ-4" target="OFLH9VN8QRDgNdpGOipJ-6">
          <mxGeometry relative="1" as="geometry" />
        </mxCell>
        <mxCell id="OFLH9VN8QRDgNdpGOipJ-4" value="User open app" style="ellipse;whiteSpace=wrap;html=1;aspect=fixed;fillColor=#fff2cc;strokeColor=#d6b656;" vertex="1" parent="1">
          <mxGeometry x="-70" y="240" width="80" height="80" as="geometry" />
        </mxCell>
        <mxCell id="OFLH9VN8QRDgNdpGOipJ-30" style="edgeStyle=orthogonalEdgeStyle;rounded=0;orthogonalLoop=1;jettySize=auto;html=1;" edge="1" parent="1" source="OFLH9VN8QRDgNdpGOipJ-6" target="OFLH9VN8QRDgNdpGOipJ-29">
          <mxGeometry relative="1" as="geometry" />
        </mxCell>
        <mxCell id="OFLH9VN8QRDgNdpGOipJ-6" value="Main screen with a &quot;Start&quot; button" style="rounded=1;whiteSpace=wrap;html=1;fillColor=#dae8fc;strokeColor=#6c8ebf;" vertex="1" parent="1">
          <mxGeometry x="80" y="250" width="120" height="60" as="geometry" />
        </mxCell>
        <mxCell id="OFLH9VN8QRDgNdpGOipJ-11" style="edgeStyle=orthogonalEdgeStyle;rounded=0;orthogonalLoop=1;jettySize=auto;html=1;entryX=0;entryY=0.5;entryDx=0;entryDy=0;" edge="1" parent="1" source="OFLH9VN8QRDgNdpGOipJ-8" target="OFLH9VN8QRDgNdpGOipJ-10">
          <mxGeometry relative="1" as="geometry" />
        </mxCell>
        <mxCell id="OFLH9VN8QRDgNdpGOipJ-8" value="Screen quiz and&amp;nbsp;four possible answers" style="rounded=1;whiteSpace=wrap;html=1;fillColor=#dae8fc;strokeColor=#6c8ebf;" vertex="1" parent="1">
          <mxGeometry x="460" y="250" width="120" height="60" as="geometry" />
        </mxCell>
        <mxCell id="OFLH9VN8QRDgNdpGOipJ-13" style="edgeStyle=orthogonalEdgeStyle;rounded=0;orthogonalLoop=1;jettySize=auto;html=1;entryX=0.5;entryY=0;entryDx=0;entryDy=0;" edge="1" parent="1" source="OFLH9VN8QRDgNdpGOipJ-10" target="OFLH9VN8QRDgNdpGOipJ-12">
          <mxGeometry relative="1" as="geometry" />
        </mxCell>
        <mxCell id="OFLH9VN8QRDgNdpGOipJ-10" value="Popup confirm answer form user" style="rounded=1;whiteSpace=wrap;html=1;fillColor=#dae8fc;strokeColor=#6c8ebf;" vertex="1" parent="1">
          <mxGeometry x="640" y="250" width="120" height="60" as="geometry" />
        </mxCell>
        <mxCell id="OFLH9VN8QRDgNdpGOipJ-15" style="edgeStyle=orthogonalEdgeStyle;rounded=0;orthogonalLoop=1;jettySize=auto;html=1;" edge="1" parent="1" source="OFLH9VN8QRDgNdpGOipJ-12" target="OFLH9VN8QRDgNdpGOipJ-14">
          <mxGeometry relative="1" as="geometry" />
        </mxCell>
        <mxCell id="OFLH9VN8QRDgNdpGOipJ-12" value="Feedback answer correct or incorrect" style="rounded=1;whiteSpace=wrap;html=1;fillColor=#dae8fc;strokeColor=#6c8ebf;" vertex="1" parent="1">
          <mxGeometry x="640" y="370" width="120" height="60" as="geometry" />
        </mxCell>
        <mxCell id="OFLH9VN8QRDgNdpGOipJ-16" value="Yes" style="edgeStyle=orthogonalEdgeStyle;rounded=0;orthogonalLoop=1;jettySize=auto;html=1;" edge="1" parent="1" source="OFLH9VN8QRDgNdpGOipJ-14" target="OFLH9VN8QRDgNdpGOipJ-8">
          <mxGeometry relative="1" as="geometry" />
        </mxCell>
        <mxCell id="OFLH9VN8QRDgNdpGOipJ-18" value="No" style="edgeStyle=orthogonalEdgeStyle;rounded=0;orthogonalLoop=1;jettySize=auto;html=1;" edge="1" parent="1" source="OFLH9VN8QRDgNdpGOipJ-14" target="OFLH9VN8QRDgNdpGOipJ-17">
          <mxGeometry relative="1" as="geometry" />
        </mxCell>
        <mxCell id="OFLH9VN8QRDgNdpGOipJ-14" value="More question" style="rhombus;whiteSpace=wrap;html=1;fillColor=#ffe6cc;strokeColor=#d79b00;" vertex="1" parent="1">
          <mxGeometry x="480" y="360" width="80" height="80" as="geometry" />
        </mxCell>
        <mxCell id="OFLH9VN8QRDgNdpGOipJ-26" style="edgeStyle=orthogonalEdgeStyle;rounded=0;orthogonalLoop=1;jettySize=auto;html=1;" edge="1" parent="1" source="OFLH9VN8QRDgNdpGOipJ-17" target="OFLH9VN8QRDgNdpGOipJ-25">
          <mxGeometry relative="1" as="geometry" />
        </mxCell>
        <mxCell id="OFLH9VN8QRDgNdpGOipJ-17" value="Show&amp;nbsp;total time, number corect answer and result (pass or fail)" style="rounded=1;whiteSpace=wrap;html=1;fillColor=#dae8fc;strokeColor=#6c8ebf;" vertex="1" parent="1">
          <mxGeometry x="460" y="480" width="120" height="60" as="geometry" />
        </mxCell>
        <mxCell id="OFLH9VN8QRDgNdpGOipJ-28" value="Yes" style="edgeStyle=orthogonalEdgeStyle;rounded=0;orthogonalLoop=1;jettySize=auto;html=1;entryX=0;entryY=0.5;entryDx=0;entryDy=0;" edge="1" parent="1" source="OFLH9VN8QRDgNdpGOipJ-25" target="OFLH9VN8QRDgNdpGOipJ-27">
          <mxGeometry relative="1" as="geometry" />
        </mxCell>
        <mxCell id="OFLH9VN8QRDgNdpGOipJ-33" value="No" style="edgeStyle=orthogonalEdgeStyle;rounded=0;orthogonalLoop=1;jettySize=auto;html=1;" edge="1" parent="1" source="OFLH9VN8QRDgNdpGOipJ-25" target="OFLH9VN8QRDgNdpGOipJ-32">
          <mxGeometry relative="1" as="geometry" />
        </mxCell>
        <mxCell id="OFLH9VN8QRDgNdpGOipJ-25" value="Review their answers" style="rhombus;whiteSpace=wrap;html=1;fillColor=#ffe6cc;strokeColor=#d79b00;" vertex="1" parent="1">
          <mxGeometry x="475" y="590" width="90" height="90" as="geometry" />
        </mxCell>
        <mxCell id="OFLH9VN8QRDgNdpGOipJ-35" style="edgeStyle=orthogonalEdgeStyle;rounded=0;orthogonalLoop=1;jettySize=auto;html=1;entryX=1;entryY=0.5;entryDx=0;entryDy=0;" edge="1" parent="1" source="OFLH9VN8QRDgNdpGOipJ-27" target="OFLH9VN8QRDgNdpGOipJ-32">
          <mxGeometry relative="1" as="geometry">
            <Array as="points">
              <mxPoint x="700" y="785" />
            </Array>
          </mxGeometry>
        </mxCell>
        <mxCell id="OFLH9VN8QRDgNdpGOipJ-27" value="Show all question their answer" style="rounded=1;whiteSpace=wrap;html=1;fillColor=#dae8fc;strokeColor=#6c8ebf;" vertex="1" parent="1">
          <mxGeometry x="640" y="605" width="120" height="60" as="geometry" />
        </mxCell>
        <mxCell id="OFLH9VN8QRDgNdpGOipJ-31" value="" style="edgeStyle=orthogonalEdgeStyle;rounded=0;orthogonalLoop=1;jettySize=auto;html=1;" edge="1" parent="1" source="OFLH9VN8QRDgNdpGOipJ-29" target="OFLH9VN8QRDgNdpGOipJ-8">
          <mxGeometry relative="1" as="geometry" />
        </mxCell>
        <mxCell id="OFLH9VN8QRDgNdpGOipJ-29" value="Quiz questions are loaded" style="whiteSpace=wrap;html=1;aspect=fixed;fillColor=#fff2cc;strokeColor=#d6b656;" vertex="1" parent="1">
          <mxGeometry x="290" y="240" width="80" height="80" as="geometry" />
        </mxCell>
        <mxCell id="OFLH9VN8QRDgNdpGOipJ-34" value="Yes" style="edgeStyle=orthogonalEdgeStyle;rounded=0;orthogonalLoop=1;jettySize=auto;html=1;entryX=0.5;entryY=1;entryDx=0;entryDy=0;" edge="1" parent="1" source="OFLH9VN8QRDgNdpGOipJ-32" target="OFLH9VN8QRDgNdpGOipJ-29">
          <mxGeometry relative="1" as="geometry" />
        </mxCell>
        <mxCell id="OFLH9VN8QRDgNdpGOipJ-37" style="edgeStyle=orthogonalEdgeStyle;rounded=0;orthogonalLoop=1;jettySize=auto;html=1;" edge="1" parent="1" source="OFLH9VN8QRDgNdpGOipJ-32" target="OFLH9VN8QRDgNdpGOipJ-36">
          <mxGeometry relative="1" as="geometry" />
        </mxCell>
        <mxCell id="OFLH9VN8QRDgNdpGOipJ-32" value="Replay quiz" style="rhombus;whiteSpace=wrap;html=1;fillColor=#ffe6cc;strokeColor=#d79b00;" vertex="1" parent="1">
          <mxGeometry x="475" y="740" width="92.5" height="90" as="geometry" />
        </mxCell>
        <mxCell id="OFLH9VN8QRDgNdpGOipJ-36" value="End" style="ellipse;whiteSpace=wrap;html=1;aspect=fixed;fillColor=#d5e8d4;strokeColor=#82b366;" vertex="1" parent="1">
          <mxGeometry x="481.25" y="880" width="80" height="80" as="geometry" />
        </mxCell>
      </root>
    </mxGraphModel>
  </diagram>
</mxfile>
